# xmcd
#
# Track frame offsets:
#	150
#	12002
#	26572
#	40270
#	52327
#	68012
#	77557
#	91175
#	103087
#	122667
#	136147
#	153392
#	167837
#	179850
#	194135
#
# Disc length: 2773 seconds
#
# Revision: 0
# Processed by: cddbd v1.5.2PL0 Copyright (c) Steve Scherf et al.
# Submitted via: EasyCDDAExtractor 10.2.0.1
#
DISCID=cc0ad30f
DTITLE=pianos barrocos - lo mejor
DYEAR=1900
DGENRE=Instrumental
TTITLE0=melodia inmortal
TTITLE1=tema de la zorra
TTITLE2=a traves de los años
TTITLE3=tema de paganini
TTITLE4=tema de ana
TTITLE5=recuerdos
TTITLE6=himno al amor
TTITLE7=leyenda del beso
TTITLE8=melodia desencadenada
TTITLE9=fantasía de amor
TTITLE10=alfonsina y el mar
TTITLE11=mac arthur park
TTITLE12=tema de amor
TTITLE13=el rey leon
TTITLE14=adagio para un amor
EXTD=
EXTT0=
EXTT1=
EXTT2=
EXTT3=
EXTT4=
EXTT5=
EXTT6=
EXTT7=
EXTT8=
EXTT9=
EXTT10=
EXTT11=
EXTT12=
EXTT13=
EXTT14=
PLAYORDER=
